<svg width="24" height="24" viewBox="0 0 24 24" fill="none" xmlns="http://www.w3.org/2000/svg">
<path d="M9.1709 19.5771C8.69238 19.5771 8.42578 19.2354 8.42578 18.709V16.9316H8.09766C6.06055 16.9316 4.9668 15.8105 4.9668 13.8008V8.56445C4.9668 6.55469 6.06055 5.43359 8.09766 5.43359H16.9023C18.9395 5.43359 20.0332 6.56152 20.0332 8.56445V13.8008C20.0332 15.8037 18.9395 16.9316 16.9023 16.9316H12.5137L10.1553 19.0303C9.73828 19.3994 9.50586 19.5771 9.1709 19.5771ZM9.45117 18.3262L11.6387 16.1523C11.8984 15.8857 12.0898 15.8311 12.4727 15.8311H16.9023C18.2764 15.8311 18.9326 15.127 18.9326 13.7939V8.56445C18.9326 7.23145 18.2764 6.53418 16.9023 6.53418H8.09766C6.7168 6.53418 6.06738 7.23145 6.06738 8.56445V13.7939C6.06738 15.127 6.7168 15.8311 8.09766 15.8311H8.93848C9.30762 15.8311 9.45117 15.9746 9.45117 16.3438V18.3262ZM9.15723 12.1602C8.61719 12.1602 8.17969 11.7227 8.17969 11.1826C8.17969 10.6426 8.61719 10.2051 9.15723 10.2051C9.69727 10.2051 10.1348 10.6426 10.1348 11.1826C10.1348 11.7227 9.69727 12.1602 9.15723 12.1602ZM12.5068 12.1602C11.9668 12.1602 11.5225 11.7227 11.5225 11.1826C11.5225 10.6426 11.9668 10.2051 12.5068 10.2051C13.04 10.2051 13.4844 10.6426 13.4844 11.1826C13.4844 11.7227 13.04 12.1602 12.5068 12.1602ZM15.8496 12.1602C15.3096 12.1602 14.8721 11.7227 14.8721 11.1826C14.8721 10.6426 15.3096 10.2051 15.8496 10.2051C16.3896 10.2051 16.8271 10.6426 16.8271 11.1826C16.8271 11.7227 16.3896 12.1602 15.8496 12.1602Z" fill="#F6C838"/>
</svg>
