<svg width="24" height="24" viewBox="0 0 24 24" fill="none" xmlns="http://www.w3.org/2000/svg">
<path d="M14.0537 21.2402C12.8145 21.2402 11.6279 20.9766 10.5469 20.502C11.3906 19.5088 11.8916 18.2344 11.8916 16.8633C11.8916 16.415 11.8389 15.958 11.7334 15.5361C12.4277 15.3691 13.2012 15.2637 14.0449 15.2637C16.6992 15.2637 18.7383 16.248 19.5996 17.2764C20.8037 15.9668 21.5244 14.209 21.5244 12.2754C21.5244 8.12695 18.1846 4.80469 14.0449 4.80469C10.248 4.80469 7.1543 7.58203 6.6709 11.2295C6.20508 11.1768 5.58105 11.2119 5.15039 11.291C5.64258 6.83496 9.46582 3.31055 14.0449 3.31055C18.9404 3.31055 23.0186 7.37109 23.0186 12.2754C23.0186 17.1709 18.9492 21.2402 14.0537 21.2402ZM14.0449 13.7695C12.3574 13.752 11.0391 12.3369 11.0303 10.4561C11.0127 8.68066 12.3574 7.21289 14.0449 7.21289C15.7236 7.21289 17.0596 8.68066 17.0596 10.4561C17.0596 12.3457 15.7324 13.7871 14.0449 13.7695ZM6.22266 21.3369C3.7793 21.3369 1.75781 19.333 1.75781 16.8721C1.75781 14.4287 3.7793 12.4072 6.22266 12.4072C8.6748 12.4072 10.6875 14.4199 10.6875 16.8721C10.6875 19.3154 8.63965 21.3369 6.22266 21.3369ZM6.22266 19.667C6.54785 19.667 6.75879 19.4561 6.75879 19.1309V17.4082H8.48145C8.79785 17.4082 9.01758 17.1973 9.01758 16.8721C9.01758 16.5469 8.79785 16.3359 8.48145 16.3359H6.75879V14.6133C6.75879 14.2969 6.54785 14.0771 6.22266 14.0771C5.89746 14.0771 5.68652 14.2969 5.68652 14.6133V16.3359H3.96387C3.64746 16.3359 3.42773 16.5469 3.42773 16.8721C3.42773 17.1973 3.64746 17.4082 3.96387 17.4082H5.68652V19.1309C5.68652 19.4561 5.89746 19.667 6.22266 19.667Z" fill="#F6C838"/>
</svg>
