<svg width="24" height="24" viewBox="0 0 24 24" fill="none" xmlns="http://www.w3.org/2000/svg">
<path d="M15.8398 8.41992C14.8643 8.41992 14.0293 7.83105 13.6602 6.9873H4.19434C3.68457 6.9873 3.28027 6.55664 3.28027 6.05566C3.28027 5.5459 3.68457 5.12402 4.19434 5.12402H13.6602C14.0205 4.28027 14.8643 3.68262 15.8398 3.68262C16.8154 3.68262 17.6592 4.28027 18.0283 5.12402H20.832C21.3154 5.12402 21.7197 5.53711 21.7197 6.05566C21.7197 6.55664 21.3154 6.9873 20.832 6.9873H18.0195C17.6592 7.83105 16.8154 8.41992 15.8398 8.41992ZM15.8398 7.16309C16.4727 7.16309 16.9561 6.6709 16.9561 6.04688C16.9561 5.42285 16.4727 4.93945 15.8398 4.93945C15.2246 4.93945 14.7324 5.42285 14.7324 6.04688C14.7324 6.6709 15.2246 7.16309 15.8398 7.16309ZM4.16797 10.6699H7.07715C7.4375 9.82617 8.28125 9.2373 9.25684 9.2373C10.2324 9.2373 11.0762 9.82617 11.4365 10.6699H20.8057C21.3154 10.6699 21.7197 11.0918 21.7197 11.6016C21.7197 12.1113 21.3154 12.5332 20.8057 12.5332H11.4365C11.0762 13.377 10.2324 13.9746 9.25684 13.9746C8.28125 13.9746 7.4375 13.377 7.07715 12.5332H4.16797C3.68457 12.5332 3.28027 12.1025 3.28027 11.6016C3.28027 11.0918 3.68457 10.6699 4.16797 10.6699ZM9.25684 12.7178C9.88965 12.7178 10.373 12.2256 10.373 11.6016C10.373 10.9688 9.88965 10.4941 9.25684 10.4941C8.6416 10.4941 8.14941 10.9688 8.14941 11.6016C8.14941 12.2256 8.6416 12.7178 9.25684 12.7178ZM15.8398 19.5293C14.8643 19.5293 14.0205 18.9316 13.6602 18.0791H4.19434C3.68457 18.0791 3.28027 17.6484 3.28027 17.1562C3.28027 16.6465 3.68457 16.2246 4.19434 16.2246H13.6602C14.0293 15.3809 14.8643 14.7832 15.8398 14.7832C16.8242 14.7832 17.6592 15.3809 18.0195 16.2246H20.832C21.3154 16.2246 21.7197 16.6377 21.7197 17.1562C21.7197 17.6572 21.3154 18.0791 20.832 18.0791H18.0283C17.6592 18.9316 16.8154 19.5293 15.8398 19.5293ZM15.8398 18.2637C16.4727 18.2637 16.9561 17.7715 16.9561 17.1562C16.9561 16.5234 16.4727 16.04 15.8398 16.04C15.2246 16.04 14.7324 16.5234 14.7324 17.1562C14.7324 17.7715 15.2246 18.2637 15.8398 18.2637Z" fill="#F6C838"/>
</svg>
