<svg width="24" height="24" viewBox="0 0 24 24" fill="none" xmlns="http://www.w3.org/2000/svg">
<path d="M11.1914 20.8389C10.7344 20.8389 10.4004 20.5664 10.2949 20.1182L9.83789 18.1846C9.49512 18.0703 9.16992 17.9385 8.87109 17.7979L7.18359 18.835C6.80566 19.0723 6.36621 19.0371 6.0498 18.7207L4.9248 17.5957C4.6084 17.2793 4.55566 16.8223 4.81934 16.4443L5.84766 14.7656C5.70703 14.458 5.5752 14.1416 5.47852 13.8252L3.52734 13.3594C3.0791 13.2627 2.81543 12.9287 2.81543 12.4717V10.8809C2.81543 10.4326 3.0791 10.0986 3.52734 10.002L5.46094 9.53613C5.5752 9.17578 5.71582 8.85059 5.83008 8.57812L4.80176 6.87305C4.54688 6.49512 4.58203 6.06445 4.90723 5.74805L6.0498 4.61426C6.375 4.30664 6.77051 4.2627 7.15723 4.48242L8.8623 5.53711C9.16113 5.37891 9.49512 5.24707 9.83789 5.13281L10.2949 3.19043C10.4004 2.74219 10.7344 2.46973 11.1914 2.46973H12.8086C13.2656 2.46973 13.5996 2.74219 13.6963 3.19043L14.1533 5.15039C14.5137 5.26465 14.8389 5.39648 15.1201 5.5459L16.8428 4.48242C17.2295 4.2627 17.6162 4.31543 17.9414 4.61426L19.0928 5.74805C19.418 6.06445 19.4443 6.49512 19.1982 6.87305L18.1611 8.57812C18.2842 8.85059 18.4248 9.17578 18.5391 9.53613L20.4727 10.002C20.9209 10.0986 21.1846 10.4326 21.1846 10.8809V12.4717C21.1846 12.9287 20.9209 13.2627 20.4727 13.3594L18.5215 13.8252C18.4248 14.1416 18.293 14.458 18.1436 14.7656L19.1807 16.4443C19.4355 16.8223 19.3916 17.2793 19.0752 17.5957L17.9414 18.7207C17.625 19.0371 17.1943 19.0723 16.8164 18.835L15.1201 17.7979C14.8301 17.9385 14.4961 18.0703 14.1533 18.1846L13.6963 20.1182C13.5996 20.5664 13.2656 20.8389 12.8086 20.8389H11.1914ZM12 14.7568C13.7051 14.7568 15.1025 13.3506 15.1025 11.6455C15.1025 9.94922 13.7051 8.55176 12 8.55176C10.2949 8.55176 8.89746 9.94922 8.89746 11.6455C8.89746 13.3506 10.2949 14.7568 12 14.7568Z" fill="#F6C838"/>
</svg>
