<svg width="24" height="24" viewBox="0 0 24 24" fill="none" xmlns="http://www.w3.org/2000/svg">
<path d="M4.24121 17.0332V7.93652C4.24121 6.11719 5.16406 5.21191 7.00098 5.21191H8.39844C8.45117 3.36621 10.0508 1.79297 12.0371 1.79297C14.0234 1.79297 15.6318 3.36621 15.6758 5.21191H17.082C18.9102 5.21191 19.8418 6.12598 19.8418 7.93652V17.0332C19.8418 18.8438 18.9189 19.7578 17.3457 19.7578H7.00098C5.16406 19.7578 4.24121 18.8525 4.24121 17.0332ZM9.81348 5.21191H14.2607C14.2256 4.06934 13.2764 3.12891 12.0371 3.12891C10.7979 3.12891 9.85742 4.06934 9.81348 5.21191ZM5.65625 16.9629C5.65625 17.877 6.13965 18.3428 7.01855 18.3428H17.3193C17.9258 18.3428 18.4268 17.877 18.4268 16.9629V8.00684C18.4268 7.09277 17.9258 6.62695 17.0557 6.62695H7.01855C6.13965 6.62695 5.65625 7.09277 5.65625 8.00684V16.9629Z" fill="#F6C838"/>
</svg>
