<svg width="24" height="24" viewBox="0 0 24 24" fill="none" xmlns="http://www.w3.org/2000/svg">
<path d="M8.04688 21.0938C7.35938 21.0938 6.91406 20.6094 6.91406 19.8438V6.16406C6.91406 4.57031 7.77344 3.70312 9.35156 3.70312H15.6484C17.2266 3.70312 18.0859 4.57031 18.0859 6.16406V19.8438C18.0859 20.6094 17.6484 21.0938 16.9531 21.0938C16.4922 21.0938 16.2109 20.8672 15.5547 20.2344L12.5703 17.2656C12.5312 17.2344 12.4688 17.2344 12.4297 17.2656L9.44531 20.2344C8.79688 20.8672 8.5 21.0938 8.04688 21.0938ZM8.86719 18.2344L11.9141 15.2734C12.2969 14.9062 12.7031 14.9062 13.0859 15.2734L16.1328 18.2344C16.2422 18.3281 16.3594 18.2969 16.3594 18.1484V6.30469C16.3594 5.71875 16.0703 5.4375 15.4844 5.4375H9.51562C8.92969 5.4375 8.64062 5.71875 8.64062 6.30469V18.1484C8.64062 18.2969 8.76562 18.3281 8.86719 18.2344Z" fill="#F6C838"/>
</svg>
