<svg width="24" height="24" viewBox="0 0 24 24" fill="none" xmlns="http://www.w3.org/2000/svg">
<path d="M12.4688 20.4297C8.05469 20.4297 4.39844 16.7812 4.39844 12.3594C4.39844 7.94531 8.04688 4.28906 12.4609 4.28906C16.8828 4.28906 20.5391 7.94531 20.5391 12.3594C20.5391 16.7812 16.8828 20.4297 12.4688 20.4297ZM12.4688 18.8438C16.0625 18.8438 18.9531 15.9531 18.9531 12.3594C18.9531 8.76562 16.0547 5.88281 12.4609 5.88281C8.86719 5.88281 5.99219 8.76562 5.99219 12.3594C5.99219 15.9531 8.875 18.8438 12.4688 18.8438ZM9.5 13.1016C9.03125 13.1016 8.69531 12.8281 8.69531 12.375C8.69531 11.9219 9.01562 11.6406 9.5 11.6406H15.4297C15.9141 11.6406 16.2266 11.9219 16.2266 12.375C16.2266 12.8281 15.8984 13.1016 15.4297 13.1016H9.5Z" fill="#F6C838"/>
</svg>
