<svg width="24" height="24" viewBox="0 0 24 24" fill="none" xmlns="http://www.w3.org/2000/svg">
<path d="M12.4688 20.4297C8.05469 20.4297 4.39844 16.7812 4.39844 12.3594C4.39844 7.94531 8.04688 4.28906 12.4609 4.28906C16.8828 4.28906 20.5391 7.94531 20.5391 12.3594C20.5391 16.7812 16.8828 20.4297 12.4688 20.4297ZM12.4688 18.8438C16.0625 18.8438 18.9531 15.9531 18.9531 12.3594C18.9531 8.76562 16.0547 5.88281 12.4609 5.88281C8.86719 5.88281 5.99219 8.76562 5.99219 12.3594C5.99219 15.9531 8.875 18.8438 12.4688 18.8438ZM8.85156 12.3594C8.85156 11.9219 9.15625 11.6172 9.59375 11.6172H11.7344V9.47656C11.7344 9.03906 12.0312 8.74219 12.4531 8.74219C12.8906 8.74219 13.1953 9.03906 13.1953 9.47656V11.6172H15.3438C15.7734 11.6172 16.0703 11.9219 16.0703 12.3594C16.0703 12.7812 15.7734 13.0781 15.3438 13.0781H13.1953V15.2266C13.1953 15.6562 12.8906 15.9609 12.4531 15.9609C12.0312 15.9609 11.7344 15.6562 11.7344 15.2266V13.0781H9.59375C9.15625 13.0781 8.85156 12.7812 8.85156 12.3594Z" fill="#F6C838"/>
</svg>
