<svg width="24" height="24" viewBox="0 0 24 24" fill="none" xmlns="http://www.w3.org/2000/svg">
<path d="M12 22C13.366 22 14.6503 21.7386 15.8529 21.2157C17.0621 20.6928 18.1275 19.9706 19.049 19.049C19.9706 18.1275 20.6928 17.0654 21.2157 15.8627C21.7386 14.6536 22 13.366 22 12C22 10.634 21.7386 9.34967 21.2157 8.14706C20.6928 6.93791 19.9706 5.87255 19.049 4.95098C18.1275 4.02941 17.0621 3.30719 15.8529 2.78431C14.6438 2.26144 13.3562 2 11.9902 2C10.6242 2 9.3366 2.26144 8.12745 2.78431C6.92484 3.30719 5.86275 4.02941 4.94118 4.95098C4.02614 5.87255 3.30719 6.93791 2.78431 8.14706C2.26144 9.34967 2 10.634 2 12C2 13.366 2.26144 14.6536 2.78431 15.8627C3.30719 17.0654 4.02941 18.1275 4.95098 19.049C5.87255 19.9706 6.93464 20.6928 8.13726 21.2157C9.34641 21.7386 10.634 22 12 22ZM8.70588 16.1176C8.48366 16.1176 8.29412 16.0392 8.13726 15.8824C7.98039 15.719 7.90196 15.5261 7.90196 15.3039C7.90196 15.0817 7.98039 14.8922 8.13726 14.7353L10.8627 12.0098L8.13726 9.29412C7.98039 9.13072 7.90196 8.94118 7.90196 8.72549C7.90196 8.49673 7.98039 8.30719 8.13726 8.15686C8.29412 8 8.48366 7.92157 8.70588 7.92157C8.92157 7.92157 9.11111 7.99673 9.27451 8.14706L12.0098 10.8725L14.7647 8.13726C14.9216 7.98039 15.1078 7.90196 15.3235 7.90196C15.5458 7.90196 15.7353 7.98039 15.8922 8.13726C16.049 8.29412 16.1275 8.48366 16.1275 8.70588C16.1275 8.9281 16.049 9.12091 15.8922 9.28431L13.1569 12.0098L15.8824 14.7255C16.0392 14.8693 16.1176 15.0621 16.1176 15.3039C16.1176 15.5261 16.0392 15.719 15.8824 15.8824C15.7255 16.0392 15.5327 16.1176 15.3039 16.1176C15.0686 16.1176 14.8758 16.0392 14.7255 15.8824L12.0098 13.1569L9.30392 15.8824C9.14052 16.0392 8.94118 16.1176 8.70588 16.1176Z" fill="#818080" fill-opacity="0.9"/>
</svg>
