<svg width="24" height="24" viewBox="0 0 24 24" fill="none" xmlns="http://www.w3.org/2000/svg">
<path d="M5 18.4217V9.8136C5 8.09198 5.88732 7.23532 7.65352 7.23532H8.99718C9.04789 5.48875 10.5859 4 12.4958 4C14.4056 4 15.9521 5.48875 15.9944 7.23532H17.3465C19.1042 7.23532 20 8.10029 20 9.8136V18.4217C20 20.135 19.1127 21 17.6 21H7.65352C5.88732 21 5 20.1433 5 18.4217ZM10.3577 7.23532H14.6338C14.6 6.15411 13.6873 5.26419 12.4958 5.26419C11.3042 5.26419 10.4 6.15411 10.3577 7.23532Z" fill="white" fill-opacity="0.35"/>
</svg>
