<svg width="24" height="24" viewBox="0 0 24 24" fill="none" xmlns="http://www.w3.org/2000/svg">
<path d="M2.04199 17.4678V2.10449C2.04199 1.46289 2.5166 0.953125 3.17578 0.953125C3.84375 0.953125 4.30957 1.46289 4.30957 2.10449V9.35547L6.62988 6.99121C7.10449 6.50781 7.54395 6.31445 8.02734 6.31445C8.51953 6.31445 8.97656 6.5166 9.4248 6.99121L12.3955 10.1201C12.4658 10.1992 12.5537 10.2344 12.6152 10.2344C12.6855 10.2344 12.7734 10.1904 12.835 10.1201L16.166 6.69238L14.9355 5.46191C14.4521 4.97852 14.7334 4.28418 15.4102 4.09961L20.6133 2.75488C21.2373 2.58789 21.8086 3.1416 21.6416 3.77441L20.2881 8.98633C20.1035 9.6543 19.4004 9.93555 18.917 9.45215L17.6514 8.18652L14.0039 11.8604C13.5469 12.3174 13.0986 12.5283 12.6152 12.5283C12.123 12.5283 11.6572 12.3262 11.2178 11.8516L8.24707 8.73145C8.17676 8.65234 8.08887 8.61719 8.01855 8.61719C7.95703 8.61719 7.86914 8.66113 7.79883 8.73145L4.30957 12.3701V15.8066C4.30957 15.9736 4.38867 16.0527 4.54688 16.0527H20.71C21.3516 16.0527 21.8613 16.5186 21.8613 17.1865C21.8613 17.8457 21.3516 18.3115 20.71 18.3115H2.88574C2.37598 18.3115 2.04199 17.9775 2.04199 17.4678Z" fill="#F6C838"/>
</svg>
