<svg width="18" height="15" viewBox="0 0 18 15" fill="none" xmlns="http://www.w3.org/2000/svg">
<path d="M3.26953 13.5176C1.75879 13.5176 0.952148 12.7246 0.952148 11.2275V2.92188C0.952148 1.4248 1.75879 0.625 3.26953 0.625H12.7236C14.2412 0.625 15.041 1.4248 15.041 2.92188V6.70898C14.7949 6.66113 14.542 6.63379 14.2822 6.63379C14.0293 6.63379 13.7764 6.66113 13.5166 6.70898V4.93848C13.5166 4.36426 13.2158 4.09082 12.6689 4.09082H3.31738C2.77051 4.09082 2.47656 4.36426 2.47656 4.93848V11.1455C2.47656 11.7266 2.77051 12 3.31738 12H9.83887C9.91406 12.5469 10.1123 13.0664 10.3994 13.5176H3.26953ZM6.6875 6.39453C6.44141 6.39453 6.35938 6.31934 6.35938 6.07324V5.66992C6.35938 5.42383 6.44141 5.34863 6.6875 5.34863H7.09082C7.33691 5.34863 7.42578 5.42383 7.42578 5.66992V6.07324C7.42578 6.31934 7.33691 6.39453 7.09082 6.39453H6.6875ZM8.90234 6.39453C8.64941 6.39453 8.56738 6.31934 8.56738 6.07324V5.66992C8.56738 5.42383 8.64941 5.34863 8.90234 5.34863H9.29883C9.54492 5.34863 9.63379 5.42383 9.63379 5.66992V6.07324C9.63379 6.31934 9.54492 6.39453 9.29883 6.39453H8.90234ZM11.1104 6.39453C10.8574 6.39453 10.7754 6.31934 10.7754 6.07324V5.66992C10.7754 5.42383 10.8574 5.34863 11.1104 5.34863H11.5068C11.7598 5.34863 11.8418 5.42383 11.8418 5.66992V6.07324C11.8418 6.31934 11.7598 6.39453 11.5068 6.39453H11.1104ZM4.47949 8.56836C4.2334 8.56836 4.15137 8.49316 4.15137 8.24707V7.84375C4.15137 7.59766 4.2334 7.52246 4.47949 7.52246H4.88281C5.12891 7.52246 5.21777 7.59766 5.21777 7.84375V8.24707C5.21777 8.49316 5.12891 8.56836 4.88281 8.56836H4.47949ZM6.6875 8.56836C6.44141 8.56836 6.35938 8.49316 6.35938 8.24707V7.84375C6.35938 7.59766 6.44141 7.52246 6.6875 7.52246H7.09082C7.33691 7.52246 7.42578 7.59766 7.42578 7.84375V8.24707C7.42578 8.49316 7.33691 8.56836 7.09082 8.56836H6.6875ZM8.90234 8.56836C8.64941 8.56836 8.56738 8.49316 8.56738 8.24707V7.84375C8.56738 7.59766 8.64941 7.52246 8.90234 7.52246H9.29883C9.54492 7.52246 9.63379 7.59766 9.63379 7.84375V8.24707C9.63379 8.49316 9.54492 8.56836 9.29883 8.56836H8.90234ZM14.2891 14.7344C12.3408 14.7344 10.7344 13.1279 10.7344 11.1797C10.7344 9.23828 12.3408 7.63184 14.2891 7.63184C16.2373 7.63184 17.8369 9.23828 17.8369 11.1797C17.8369 13.1211 16.2168 14.7344 14.2891 14.7344ZM12.6553 11.7949H14.3301C14.624 11.7949 14.8496 11.5693 14.8496 11.2822V9.23828C14.8496 8.95117 14.6172 8.73242 14.3301 8.73242C14.043 8.73242 13.8174 8.95117 13.8174 9.23828V10.7695H12.6553C12.3682 10.7695 12.1357 10.9951 12.1357 11.2822C12.1357 11.5693 12.3613 11.7949 12.6553 11.7949ZM4.47949 10.7422C4.2334 10.7422 4.15137 10.667 4.15137 10.4209V10.0176C4.15137 9.77148 4.2334 9.69629 4.47949 9.69629H4.88281C5.12891 9.69629 5.21777 9.77148 5.21777 10.0176V10.4209C5.21777 10.667 5.12891 10.7422 4.88281 10.7422H4.47949ZM6.6875 10.7422C6.44141 10.7422 6.35938 10.667 6.35938 10.4209V10.0176C6.35938 9.77148 6.44141 9.69629 6.6875 9.69629H7.09082C7.33691 9.69629 7.42578 9.77148 7.42578 10.0176V10.4209C7.42578 10.667 7.33691 10.7422 7.09082 10.7422H6.6875ZM8.90234 10.7422C8.64941 10.7422 8.56738 10.667 8.56738 10.4209V10.0176C8.56738 9.77148 8.64941 9.69629 8.90234 9.69629H9.29883C9.54492 9.69629 9.63379 9.77148 9.63379 10.0176V10.4209C9.63379 10.667 9.54492 10.7422 9.29883 10.7422H8.90234Z" fill="#F6C838"/>
</svg>
