<svg width="24" height="24" viewBox="0 0 24 24" fill="none" xmlns="http://www.w3.org/2000/svg">
<path d="M16.19 2H7.81C4.17 2 2 4.17 2 7.81V16.18C2 19.83 4.17 22 7.81 22H16.18C19.82 22 21.99 19.83 21.99 16.19V7.81C22 4.17 19.83 2 16.19 2ZM16.78 9.7L11.11 15.37C10.9694 15.5105 10.7788 15.5893 10.58 15.5893C10.3812 15.5893 10.1906 15.5105 10.05 15.37L7.22 12.54C7.08052 12.3989 7.0023 12.2084 7.0023 12.01C7.0023 11.8116 7.08052 11.6211 7.22 11.48C7.51 11.19 7.99 11.19 8.28 11.48L10.58 13.78L15.72 8.64C16.01 8.35 16.49 8.35 16.78 8.64C17.07 8.93 17.07 9.4 16.78 9.7Z" fill="#F7C838"/>
</svg>
