<svg width="24" height="24" viewBox="0 0 24 24" fill="none" xmlns="http://www.w3.org/2000/svg">
<path d="M11.6836 15.708C11.5059 15.708 11.3486 15.6396 11.2188 15.5098L5.92773 10.0957C5.81152 9.97266 5.74316 9.82227 5.74316 9.65137C5.74316 9.2959 6.00977 9.02246 6.36523 9.02246C6.54297 9.02246 6.7002 9.09082 6.80957 9.2002L11.6836 14.1768L16.5508 9.2002C16.667 9.09082 16.8242 9.02246 16.9951 9.02246C17.3506 9.02246 17.6172 9.2959 17.6172 9.65137C17.6172 9.82227 17.5488 9.97266 17.4326 10.0889L12.1416 15.5098C12.0254 15.6396 11.8545 15.708 11.6836 15.708Z" fill="white"/>
</svg>
