<svg width="17" height="15" viewBox="0 0 17 15" fill="none" xmlns="http://www.w3.org/2000/svg">
<path d="M5.1709 14.5771C4.69238 14.5771 4.42578 14.2354 4.42578 13.709V11.9316H4.09766C2.06055 11.9316 0.966797 10.8105 0.966797 8.80078V3.56445C0.966797 1.55469 2.06055 0.433594 4.09766 0.433594H12.9023C14.9395 0.433594 16.0332 1.56152 16.0332 3.56445V8.80078C16.0332 10.8037 14.9395 11.9316 12.9023 11.9316H8.51367L6.15527 14.0303C5.73828 14.3994 5.50586 14.5771 5.1709 14.5771ZM5.45117 13.3262L7.63867 11.1523C7.89844 10.8857 8.08984 10.8311 8.47266 10.8311H12.9023C14.2764 10.8311 14.9326 10.127 14.9326 8.79395V3.56445C14.9326 2.23145 14.2764 1.53418 12.9023 1.53418H4.09766C2.7168 1.53418 2.06738 2.23145 2.06738 3.56445V8.79395C2.06738 10.127 2.7168 10.8311 4.09766 10.8311H4.93848C5.30762 10.8311 5.45117 10.9746 5.45117 11.3438V13.3262ZM5.15723 7.16016C4.61719 7.16016 4.17969 6.72266 4.17969 6.18262C4.17969 5.64258 4.61719 5.20508 5.15723 5.20508C5.69727 5.20508 6.13477 5.64258 6.13477 6.18262C6.13477 6.72266 5.69727 7.16016 5.15723 7.16016ZM8.50684 7.16016C7.9668 7.16016 7.52246 6.72266 7.52246 6.18262C7.52246 5.64258 7.9668 5.20508 8.50684 5.20508C9.04004 5.20508 9.48438 5.64258 9.48438 6.18262C9.48438 6.72266 9.04004 7.16016 8.50684 7.16016ZM11.8496 7.16016C11.3096 7.16016 10.8721 6.72266 10.8721 6.18262C10.8721 5.64258 11.3096 5.20508 11.8496 5.20508C12.3896 5.20508 12.8271 5.64258 12.8271 6.18262C12.8271 6.72266 12.3896 7.16016 11.8496 7.16016Z" fill="#F6C838"/>
</svg>
