<svg width="24" height="24" viewBox="0 0 24 24" fill="none" xmlns="http://www.w3.org/2000/svg">
<path d="M5.88867 21.5713C6.15234 21.5713 6.49805 21.5068 6.92578 21.3779C7.35352 21.249 7.81348 21.0762 8.30566 20.8594C8.80371 20.6426 9.29297 20.4023 9.77344 20.1387C10.2598 19.8809 10.6904 19.6172 11.0654 19.3477C11.1416 19.2949 11.2119 19.2568 11.2764 19.2334C11.3408 19.21 11.4023 19.1982 11.4609 19.1982C11.5195 19.2041 11.5781 19.207 11.6367 19.207C11.6953 19.2129 11.751 19.2158 11.8037 19.2158C13.0693 19.2158 14.2441 19.0811 15.3281 18.8115C16.4121 18.542 17.3848 18.1611 18.2461 17.6689C19.1133 17.1768 19.8516 16.5996 20.4609 15.9375C21.0703 15.2695 21.5361 14.5371 21.8584 13.7402C22.1807 12.9434 22.3418 12.1084 22.3418 11.2354C22.3418 10.6377 22.2539 10.04 22.0781 9.44238C21.7031 9.77051 21.2783 10.0283 20.8037 10.2158C20.3291 10.4033 19.8281 10.4971 19.3008 10.4971C18.5215 10.4971 17.8096 10.3066 17.165 9.92578C16.5205 9.53906 16.0049 9.02344 15.6182 8.37891C15.2373 7.73438 15.0469 7.02246 15.0469 6.24316C15.0469 5.78027 15.1172 5.33789 15.2578 4.91602C15.4043 4.49414 15.6094 4.10742 15.873 3.75586C15.3281 3.5918 14.7627 3.46582 14.1768 3.37793C13.5908 3.29004 12.9902 3.24609 12.375 3.24609C10.9922 3.24609 9.69727 3.4541 8.49023 3.87012C7.2832 4.28027 6.22266 4.85156 5.30859 5.58398C4.40039 6.31055 3.68848 7.15723 3.17285 8.12402C2.66309 9.09082 2.4082 10.1279 2.4082 11.2354C2.4082 12.1729 2.58984 13.0635 2.95312 13.9072C3.32227 14.751 3.84668 15.5244 4.52637 16.2275C5.21191 16.9248 6.02344 17.5254 6.96094 18.0293C7.02539 18.0645 7.06641 18.1143 7.08398 18.1787C7.10742 18.2373 7.10156 18.2988 7.06641 18.3633C6.90234 18.6328 6.70898 18.9111 6.48633 19.1982C6.26367 19.4854 6.04688 19.749 5.83594 19.9893C5.63086 20.2354 5.47266 20.4316 5.36133 20.5781C5.19141 20.8008 5.15039 21.0205 5.23828 21.2373C5.33203 21.46 5.54883 21.5713 5.88867 21.5713ZM19.3008 9.30176C19.8516 9.30176 20.3584 9.16406 20.8213 8.88867C21.2842 8.61328 21.6533 8.24414 21.9287 7.78125C22.2041 7.31836 22.3418 6.80859 22.3418 6.25195C22.3418 5.69531 22.2041 5.18555 21.9287 4.72266C21.6533 4.25977 21.2842 3.89062 20.8213 3.61523C20.3584 3.33984 19.8516 3.20215 19.3008 3.20215C18.7383 3.20215 18.2256 3.33984 17.7627 3.61523C17.3057 3.89062 16.9395 4.25977 16.6641 4.72266C16.3887 5.18555 16.251 5.69531 16.251 6.25195C16.251 6.80859 16.3887 7.31836 16.6641 7.78125C16.9395 8.24414 17.3057 8.61328 17.7627 8.88867C18.2256 9.16406 18.7383 9.30176 19.3008 9.30176Z" fill="#F6C838"/>
</svg>
