<svg width="24" height="24" viewBox="0 0 24 24" fill="none" xmlns="http://www.w3.org/2000/svg">
<path d="M8.03418 21.146C6.1582 21.146 5.12891 20.1167 5.12891 18.2324V5.81445C5.12891 3.91357 6.1582 2.88428 8.04248 2.88428H16.9326C18.8169 2.88428 19.8462 3.92188 19.8462 5.81445V14.4971C19.8462 15.3604 19.5972 15.7754 19.0244 16.2319C17.9619 17.1533 18.1528 18.6558 19.124 19.1704C19.5225 19.3945 19.8628 19.6851 19.8628 20.1997C19.8628 20.7476 19.4644 21.146 18.9165 21.146H8.03418ZM8.02588 15.0698C8.32471 15.0698 8.58203 14.8208 8.58203 14.522V5.00928C8.58203 4.70215 8.32471 4.45312 8.02588 4.45312C7.72705 4.45312 7.46973 4.70215 7.46973 5.00928V14.522C7.46973 14.8208 7.72705 15.0698 8.02588 15.0698ZM11.2051 8.53711H16.6172C17.0073 8.53711 17.3228 8.21338 17.3228 7.83154C17.3228 7.44141 17.0073 7.12598 16.6172 7.12598H11.2051C10.8232 7.12598 10.4995 7.44141 10.4995 7.83154C10.4995 8.21338 10.8232 8.53711 11.2051 8.53711ZM11.2051 11.0273H15.3223C15.7041 11.0273 16.0278 10.7036 16.0278 10.3135C16.0278 9.93164 15.7041 9.61621 15.3223 9.61621H11.2051C10.8232 9.61621 10.4995 9.93164 10.4995 10.3135C10.4995 10.7036 10.8232 11.0273 11.2051 11.0273ZM8.47412 19.2451H16.6836C16.252 18.4316 16.2271 17.4189 16.6587 16.5225C16.5923 16.5308 16.5176 16.5391 16.4429 16.5391H8.51562C7.56934 16.5391 7.04639 17.1367 7.04639 17.8838C7.04639 18.6641 7.51953 19.2451 8.47412 19.2451Z" fill="#F6C838"/>
</svg>
