<svg width="24" height="24" viewBox="0 0 24 24" fill="none" xmlns="http://www.w3.org/2000/svg">
<path d="M3.95312 21.1602C2.01953 21.1602 1 20.123 1 18.1807V4.9707C1 3.02832 2.01953 2 3.95312 2H13.3398C15.2646 2 16.293 3.02832 16.293 4.9707V8.85547H14.333V5.1377C14.333 4.37305 13.9463 3.95117 13.1377 3.95117H4.15527C3.34668 3.95117 2.95996 4.37305 2.95996 5.1377V18.0137C2.95996 18.7871 3.34668 19.2002 4.15527 19.2002H13.1377C13.9463 19.2002 14.333 18.7871 14.333 18.0137V14.3135H16.293V18.1807C16.293 20.123 15.2646 21.1602 13.3398 21.1602H3.95312ZM9.81543 12.4678C9.33203 12.4678 8.92773 12.0723 8.92773 11.5713C8.92773 11.0703 9.33203 10.666 9.81543 10.666H18.543L19.8438 10.7451L19.1758 10.2354L17.9453 9.0752C17.7783 8.92578 17.6816 8.69727 17.6816 8.47754C17.6816 8.04688 17.998 7.68652 18.4463 7.68652C18.6748 7.68652 18.8506 7.77441 19.0088 7.94141L21.8301 10.877C22.0674 11.1055 22.1465 11.334 22.1465 11.5713C22.1465 11.8086 22.0674 12.0283 21.8301 12.2656L19.0088 15.2012C18.8506 15.3594 18.6748 15.4473 18.4463 15.4473C17.998 15.4473 17.6816 15.0869 17.6816 14.6562C17.6816 14.4365 17.7783 14.2168 17.9453 14.0586L19.1758 12.9072L19.835 12.3975L18.543 12.4678H9.81543Z" fill="#BE4A4A"/>
</svg>
