<svg width="24" height="24" viewBox="0 0 24 24" fill="none" xmlns="http://www.w3.org/2000/svg">
<path d="M17.4229 12.4043C17.4229 12.293 17.3994 12.1904 17.3525 12.0967C17.3115 11.9971 17.25 11.9062 17.168 11.8242L10.207 5.00391C10.0488 4.85156 9.85547 4.77539 9.62695 4.77539C9.48047 4.77539 9.3457 4.81055 9.22266 4.88086C9.09961 4.95117 9.00293 5.04785 8.93262 5.1709C8.8623 5.28809 8.82715 5.42285 8.82715 5.5752C8.82715 5.79199 8.90332 5.98242 9.05566 6.14648L15.4541 12.4043L9.05566 18.6621C8.90332 18.8262 8.82715 19.0166 8.82715 19.2334C8.82715 19.3857 8.8623 19.5205 8.93262 19.6377C9.00293 19.7607 9.09961 19.8574 9.22266 19.9277C9.3457 19.998 9.48047 20.0332 9.62695 20.0332C9.85547 20.0332 10.0488 19.9541 10.207 19.7959L17.168 12.9844C17.25 12.9023 17.3115 12.8145 17.3525 12.7207C17.3994 12.6211 17.4229 12.5156 17.4229 12.4043Z" fill="#F6C838"/>
</svg>
