<svg width="24" height="24" viewBox="0 0 24 24" fill="none" xmlns="http://www.w3.org/2000/svg">
<path d="M7.33008 21.6768H17.4111C18.3311 21.6768 19.0195 21.4482 19.4766 20.9912C19.9395 20.5342 20.1709 19.8545 20.1709 18.9521V10.3564C20.1709 9.4541 19.9395 8.77441 19.4766 8.31738C19.0195 7.86035 18.3311 7.63184 17.4111 7.63184H13.2451V14.1357C13.2451 14.3701 13.1572 14.5723 12.9814 14.7422C12.8115 14.9062 12.6064 14.9883 12.3662 14.9883C12.1318 14.9883 11.9268 14.9062 11.751 14.7422C11.5811 14.5723 11.4961 14.3701 11.4961 14.1357V7.63184H7.33008C6.41016 7.63184 5.71875 7.86035 5.25586 8.31738C4.79883 8.76855 4.57031 9.44824 4.57031 10.3564V18.9521C4.57031 19.8604 4.79883 20.54 5.25586 20.9912C5.71875 21.4482 6.41016 21.6768 7.33008 21.6768ZM12.3662 8.32617C12.5596 8.32617 12.7236 8.25879 12.8584 8.12402C12.999 7.98926 13.0693 7.82812 13.0693 7.64062V5.08301L13.0166 3.76465L13.6055 4.38867L14.9414 5.8125C15.0645 5.95312 15.2227 6.02344 15.416 6.02344C15.5977 6.02344 15.75 5.96484 15.873 5.84766C15.9961 5.73047 16.0576 5.58105 16.0576 5.39941C16.0576 5.23535 15.9873 5.08301 15.8467 4.94238L12.876 2.07715C12.7881 1.98926 12.7031 1.92773 12.6211 1.89258C12.5449 1.85742 12.46 1.83984 12.3662 1.83984C12.2783 1.83984 12.1934 1.85742 12.1113 1.89258C12.0352 1.92773 11.9502 1.98926 11.8564 2.07715L8.88574 4.94238C8.75098 5.08301 8.68359 5.23535 8.68359 5.39941C8.68359 5.58105 8.74219 5.73047 8.85938 5.84766C8.97656 5.96484 9.12891 6.02344 9.31641 6.02344C9.51562 6.02344 9.67676 5.95312 9.7998 5.8125L11.127 4.38867L11.7246 3.76465L11.6719 5.08301V7.64062C11.6719 7.82812 11.7393 7.98926 11.874 8.12402C12.0146 8.25879 12.1787 8.32617 12.3662 8.32617Z" fill="#F6C838"/>
</svg>
