<svg width="19" height="18" viewBox="0 0 19 18" fill="none" xmlns="http://www.w3.org/2000/svg">
<path d="M4.0234 17.0625C3.62496 16.7656 3.54683 16.2656 3.76558 15.6172L5.35152 10.9062L1.30465 8.00781C0.749958 7.60938 0.499958 7.15625 0.66402 6.67969C0.828083 6.21094 1.28121 5.97656 1.9609 5.98438L6.92965 6.02344L8.43746 1.28125C8.6484 0.617188 8.99996 0.265625 9.49996 0.265625C9.99996 0.265625 10.3437 0.617188 10.5546 1.28125L12.0703 6.02344L17.0234 5.98438C17.7187 5.97656 18.164 6.21094 18.3281 6.67969C18.4843 7.15625 18.25 7.60938 17.6875 8.00781L13.6406 10.9062L15.2265 15.6172C15.4453 16.2656 15.3671 16.7656 14.9687 17.0625C14.5625 17.375 14.0703 17.2734 13.5078 16.8672L9.49996 13.9219L5.48433 16.8672C4.92183 17.2734 4.42965 17.375 4.0234 17.0625Z" fill="#F6C838"/>
</svg>
