<svg width="24" height="24" viewBox="0 0 24 24" fill="none" xmlns="http://www.w3.org/2000/svg">
<path d="M7.76367 13.7061V3.18555C7.76367 2.5791 8.15918 2.20117 8.75684 2.20117H10.5234C11.1299 2.20117 11.5166 2.5791 11.5166 3.18555V13.7061C11.5166 14.3037 11.1299 14.6904 10.5234 14.6904H8.75684C8.15918 14.6904 7.76367 14.3037 7.76367 13.7061ZM12.4834 13.7061V5.27734C12.4834 4.67969 12.8613 4.29297 13.4678 4.29297H15.2432C15.8408 4.29297 16.2363 4.67969 16.2363 5.27734V13.7061C16.2363 14.3037 15.8408 14.6904 15.2432 14.6904H13.4678C12.8613 14.6904 12.4834 14.3037 12.4834 13.7061ZM3.04395 13.7061V6.97363C3.04395 6.37598 3.43945 5.98047 4.03711 5.98047H5.80371C6.40137 5.98047 6.79688 6.37598 6.79688 6.97363V13.7061C6.79688 14.3037 6.40137 14.6904 5.80371 14.6904H4.03711C3.43945 14.6904 3.04395 14.3037 3.04395 13.7061ZM17.2031 13.7061V8.63477C17.2031 8.03711 17.5898 7.65039 18.1963 7.65039H19.9629C20.5605 7.65039 20.9561 8.03711 20.9561 8.63477V13.7061C20.9561 14.3037 20.5605 14.6904 19.9629 14.6904H18.1963C17.5898 14.6904 17.2031 14.3037 17.2031 13.7061ZM1.89258 17.1865C1.89258 16.5186 2.40234 16.0527 3.04395 16.0527H20.9561C21.6064 16.0527 22.1074 16.5186 22.1074 17.1865C22.1074 17.8457 21.6064 18.3115 20.9561 18.3115H3.04395C2.40234 18.3115 1.89258 17.8457 1.89258 17.1865Z" fill="#F6C838"/>
</svg>
