<svg width="24" height="24" viewBox="0 0 24 24" fill="none" xmlns="http://www.w3.org/2000/svg">
<path d="M8.53223 19.0713C7.54102 19.0713 6.89844 18.4424 6.85059 17.4648L6.37207 7.51855H5.55859C5.28516 7.51855 5.0459 7.28613 5.0459 6.99902C5.0459 6.71875 5.28516 6.48633 5.55859 6.48633H8.66211V5.44043C8.66211 4.44922 9.30469 3.84766 10.3574 3.84766H12.9551C14.0078 3.84766 14.6504 4.44922 14.6504 5.44043V6.48633H17.7744C18.0547 6.48633 18.2803 6.71875 18.2803 6.99902C18.2803 7.2793 18.0547 7.51855 17.7744 7.51855H16.9541L16.4824 17.458C16.4346 18.4355 15.7783 19.0713 14.8008 19.0713H8.53223ZM9.74902 5.50879V6.48633H13.5635V5.50879C13.5635 5.11914 13.29 4.86621 12.8799 4.86621H10.4326C10.0225 4.86621 9.74902 5.11914 9.74902 5.50879ZM8.62793 18.0391H14.6914C15.0947 18.0391 15.3887 17.752 15.4023 17.3418L15.8535 7.51855H7.44531L7.92383 17.3418C7.94434 17.7451 8.23828 18.0391 8.62793 18.0391ZM9.63965 16.8701C9.38672 16.8701 9.21582 16.7129 9.20898 16.4668L9.00391 9.15918C8.99707 8.91992 9.16797 8.75586 9.42773 8.75586C9.67383 8.75586 9.84473 8.91309 9.85156 9.15234L10.0635 16.4668C10.0703 16.7061 9.89941 16.8701 9.63965 16.8701ZM11.6631 16.8701C11.4033 16.8701 11.2256 16.7061 11.2256 16.4668V9.15918C11.2256 8.91992 11.4033 8.75586 11.6631 8.75586C11.9229 8.75586 12.1074 8.91992 12.1074 9.15918V16.4668C12.1074 16.7061 11.9229 16.8701 11.6631 16.8701ZM13.6934 16.8701C13.4336 16.8701 13.2627 16.7061 13.2695 16.4668L13.4746 9.15918C13.4814 8.91309 13.6523 8.75586 13.8984 8.75586C14.1582 8.75586 14.3291 8.91992 14.3223 9.15918L14.1172 16.4668C14.1104 16.7129 13.9395 16.8701 13.6934 16.8701Z" fill="#AFAFAF"/>
</svg>
