<svg width="24" height="24" viewBox="0 0 24 24" fill="none" xmlns="http://www.w3.org/2000/svg">
<path d="M19.2576 7.02279L18.1089 5.8032L18.6419 5.24154C18.9122 4.95269 19.3402 4.91257 19.5954 5.17735L19.7906 5.39399C20.0759 5.69087 20.0684 6.13217 19.7756 6.45311L19.2576 7.02279ZM10.3006 15.6482C10.1279 15.7204 9.94022 15.5118 10.0153 15.3273L10.691 13.7466L17.5383 6.42102L18.6795 7.63259L11.8322 14.9582L10.3006 15.6482ZM7.4626 21C5.8484 21 5 20.1174 5 18.4003V9.1972C5 7.48014 5.8484 6.58952 7.4626 6.58952H15.4435L13.972 8.16215H7.5527C6.85446 8.16215 6.47156 8.55531 6.47156 9.33361V18.2639C6.47156 19.0422 6.85446 19.4354 7.5527 19.4354H16.1268C16.6298 19.4354 17.0202 19.0422 17.0202 18.2639V11.492L18.4918 9.91933V18.4003C18.4918 20.1094 17.6509 21 16.2169 21H7.4626Z" fill="#818080"/>
</svg>
